<svg xmlns="http://www.w3.org/2000/svg" width="512" height="512" viewBox="0 0 512 512">
  <defs>
    <linearGradient id="grad" x1="0%" y1="0%" x2="100%" y2="100%">
      <stop offset="0%" style="stop-color:#6F13A5;stop-opacity:1" />
      <stop offset="100%" style="stop-color:#CF00FF;stop-opacity:1" />
    </linearGradient>
  </defs>
  <rect width="512" height="512" rx="64" fill="url(#grad)"/>
  <!-- Loop/infinity symbol -->
  <path d="M 140 260 C 100 200, 100 140, 160 110 C 220 80, 256 130, 256 180 C 256 130, 292 80, 352 110 C 412 140, 412 200, 372 260"
        fill="none" stroke="#FFFFFF" stroke-width="20" stroke-linecap="round"/>
  <path d="M 140 260 C 100 320, 100 380, 160 410 C 220 440, 256 390, 256 340 C 256 390, 292 440, 352 410 C 412 380, 412 320, 372 260"
        fill="none" stroke="#FFFFFF" stroke-width="20" stroke-linecap="round"/>
  <!-- Star accent -->
  <circle cx="256" cy="256" r="12" fill="#FFD700"/>
  <text x="256" y="460" text-anchor="middle" font-family="Arial, sans-serif" font-size="28" font-weight="bold" fill="#FFFFFF">LoopClub</text>
</svg>
